<svg xmlns:x="http://ns.adobe.com/Extensibility/1.0/" xmlns:i="http://ns.adobe.com/AdobeIllustrator/10.0/" xmlns:graph="http://ns.adobe.com/Graphs/1.0/" xmlns="http://www.w3.org/2000/svg" xmlns:xlink="http://www.w3.org/1999/xlink" xmlns:a="http://ns.adobe.com/AdobeSVGViewerExtensions/3.0/" version="1.1" x="0px" y="0px" viewBox="0 0 100 125" enable-background="new 0 0 100 100" xml:space="preserve"><path d="M70.79,38.18l5.458-9.459l-14.893-8.599c-9.7-5.599-22.125-2.279-27.729,7.43l3.25,1.877  c2.583-4.484,8.317-6.02,12.804-3.432l4.867,2.808l-11.725,20.31L41.2,48.181L26.199,74.158c-1.552,2.691-0.634,6.133,2.057,7.684  c2.697,1.558,6.136,0.633,7.688-2.061l14.995-25.976l-1.617-0.937l11.724-20.31L70.79,38.18z"/><path d="M20.633,63.435c-0.473,0-0.95-0.12-1.384-0.369L1.389,52.754C0.527,52.257,0,51.34,0,50.347s0.527-1.91,1.389-2.406  l17.86-10.311c1.324-0.767,3.023-0.312,3.792,1.017c0.771,1.329,0.315,3.027-1.015,3.794L8.333,50.347l13.693,7.906  c1.33,0.765,1.785,2.463,1.015,3.792C22.526,62.938,21.592,63.435,20.633,63.435z"/><path d="M79.361,66.212c-0.959,0-1.893-0.497-2.408-1.389c-0.765-1.329-0.31-3.028,1.02-3.792l13.694-7.906L77.973,45.22  c-1.329-0.768-1.784-2.466-1.02-3.794c0.771-1.329,2.468-1.784,3.797-1.017l17.861,10.311c0.857,0.497,1.389,1.414,1.389,2.406  s-0.531,1.91-1.389,2.405L80.75,65.843C80.312,66.093,79.834,66.212,79.361,66.212z"/><text x="0" y="115" fill="#000000" font-size="5px" font-weight="bold" font-family="'Helvetica Neue', Helvetica, Arial-Unicode, Arial, Sans-serif">Created by Lemon Liu</text><text x="0" y="120" fill="#000000" font-size="5px" font-weight="bold" font-family="'Helvetica Neue', Helvetica, Arial-Unicode, Arial, Sans-serif">from the Noun Project</text></svg>